<?xml version="1.0" standalone="no"?>
<!DOCTYPE svg PUBLIC "-//W3C//DTD SVG 20010904//EN"
 "http://www.w3.org/TR/2001/REC-SVG-20010904/DTD/svg10.dtd">
<svg version="1.0" xmlns="http://www.w3.org/2000/svg"
 width="321.000000pt" height="321.000000pt" viewBox="0 0 321.000000 321.000000"
 preserveAspectRatio="xMidYMid meet">
<metadata>
Created by potrace 1.11, written by Peter Selinger 2001-2013
</metadata>
<g transform="translate(0.000000,321.000000) scale(0.100000,-0.100000)"
fill="#000000" stroke="none">
<path d="M2135 2642 c-26 -6 -42 -27 -59 -82 -18 -57 -78 -250 -205 -655 -56
-176 -101 -330 -101 -343 0 -17 9 -27 35 -38 20 -8 40 -12 44 -9 5 2 24 7 42
9 19 3 68 12 109 20 41 8 89 18 105 20 17 3 111 21 210 41 99 19 183 35 187
35 4 0 3 -12 -2 -27 -5 -16 -34 -107 -64 -203 -123 -395 -160 -510 -191 -610
-60 -189 -62 -203 -25 -215 40 -13 62 -14 83 -4 14 6 120 172 285 447 144 240
270 451 280 467 9 17 20 32 25 33 4 2 7 7 7 11 0 5 70 124 155 266 130 216
153 260 144 276 -16 31 -55 41 -113 30 -28 -6 -123 -24 -211 -41 -88 -17 -176
-33 -195 -36 -19 -3 -52 -10 -74 -15 -21 -6 -58 -13 -83 -16 l-45 -5 15 28 c8
16 28 58 45 94 16 36 66 139 110 230 124 258 128 270 79 286 -22 8 -556 13
-592 6z"/>
<path d="M19 2209 c-8 -5 -11 -203 -11 -710 0 -387 1 -711 1 -720 1 -13 17
-16 101 -16 55 0 101 3 101 6 1 3 2 329 3 724 1 471 -2 717 -9 718 -43 5 -177
4 -186 -2z"/>
<path d="M893 1791 c-24 -12 -91 -62 -129 -96 -6 -5 -22 -17 -34 -25 -12 -8
-32 -23 -43 -34 -18 -15 -115 -91 -152 -118 -5 -4 -26 -20 -45 -36 -19 -15
-83 -66 -142 -112 -60 -45 -108 -84 -108 -86 0 -4 130 -108 205 -164 33 -25
65 -49 71 -55 6 -5 24 -20 40 -33 16 -12 67 -53 115 -90 47 -37 117 -92 157
-122 l72 -55 118 -1 c64 -1 123 1 130 5 8 5 -11 25 -55 58 -166 126 -339 258
-350 267 -6 6 -61 47 -121 91 -61 44 -113 85 -115 92 -4 7 68 68 169 145 97
73 185 141 197 150 12 10 82 63 155 119 73 55 131 103 128 106 -3 3 -57 6
-120 7 -84 1 -124 -2 -143 -13z"/>
</g>
</svg>
